grf
version=1
nRows=56
nColumns=19
inDegrees=yes
endheader
time	ground_force_2_vx	ground_force_2_vy	ground_force_2_vz	ground_force_2_px	ground_force_2_py	ground_force_2_pz	ground_moment_2_mx	ground_moment_2_my	ground_moment_2_mz	ground_force_3_vx	ground_force_3_vy	ground_force_3_vz	ground_force_3_px	ground_force_3_py	ground_force_3_pz	ground_moment_3_mx	ground_moment_3_my	ground_moment_3_mz
0.870000	0.803869	249.520843	5.954375	-0.225054	0.000000	0.143135	-0.000000	-0.933136	0.000000	0.000000	0.000000	0.000000	-0.903159	0.000000	0.279405	0.000000	0.000000	0.000000
0.871000	1.187151	249.890452	5.894846	-0.224959	0.000000	0.143225	-0.000000	-0.939346	0.000000	0.000000	0.000000	0.000000	-0.903766	0.000000	0.278564	0.000000	0.000000	0.000000
0.872000	1.577095	250.299273	5.840468	-0.224869	0.000000	0.143328	-0.000000	-0.945627	0.000000	0.000000	0.000000	0.000000	-0.904409	0.000000	0.277672	0.000000	0.000000	0.000000
0.873000	1.973824	250.747407	5.791256	-0.224786	0.000000	0.143442	-0.000000	-0.951976	0.000000	0.000000	0.000000	0.000000	-0.905134	0.000000	0.276666	0.000000	0.000000	0.000000
0.874000	2.377463	251.234942	5.747217	-0.224711	0.000000	0.143568	-0.000000	-0.958394	0.000000	0.000000	0.000000	0.000000	-0.906010	0.000000	0.275451	0.000000	0.000000	0.000000
0.875000	2.788129	251.761952	5.708357	-0.224648	0.000000	0.143705	-0.000000	-0.964879	0.000000	0.000000	0.000000	0.000000	-0.907160	0.000000	0.273857	0.000000	0.000000	0.000000
0.876000	3.205943	252.328495	5.674671	-0.224601	0.000000	0.143853	-0.000000	-0.971430	0.000000	0.000000	0.000000	0.000000	-0.908849	0.000000	0.271515	0.000000	0.000000	0.000000
0.877000	3.631019	252.934613	5.646154	-0.224569	0.000000	0.144009	-0.000000	-0.978045	0.000000	0.000000	0.000000	0.000000	-0.911783	0.000000	0.267445	0.000000	0.000000	0.000000
0.878000	4.063470	253.580335	5.622791	-0.224552	0.000000	0.144171	-0.000000	-0.984724	0.000000	0.000000	0.000000	0.000000	-0.918766	0.000000	0.257762	0.000000	0.000000	0.000000
0.879000	4.503408	254.265670	5.604564	-0.224548	0.000000	0.144335	-0.000000	-0.991466	0.000000	0.000000	0.000000	0.000000	-0.965117	0.000000	0.193487	0.000000	0.000000	0.000000
0.880000	4.950940	254.990611	5.591449	-0.224557	0.000000	0.144501	-0.000000	-0.998270	0.000000	0.000000	0.000000	0.000000	-0.870690	0.000000	0.324430	0.000000	0.000000	0.000000
0.881000	5.406171	255.755133	5.583417	-0.224577	0.000000	0.144664	-0.000000	-1.005135	0.000000	0.000000	0.000000	0.000000	-0.890574	0.000000	0.296857	0.000000	0.000000	0.000000
0.882000	5.869203	256.559194	5.580432	-0.224603	0.000000	0.144822	-0.000000	-1.012061	0.000000	0.000000	0.000000	0.000000	-0.895639	0.000000	0.289834	0.000000	0.000000	0.000000
0.883000	6.340136	257.402730	5.582453	-0.224632	0.000000	0.144977	-0.000000	-1.019046	0.000000	0.000000	0.000000	0.000000	-0.898051	0.000000	0.286488	0.000000	0.000000	0.000000
0.884000	6.819067	258.285660	5.589434	-0.224662	0.000000	0.145125	-0.000000	-1.026090	0.000000	0.000000	0.000000	0.000000	-0.899528	0.000000	0.284440	0.000000	0.000000	0.000000
0.885000	7.306087	259.207882	5.601324	-0.224692	0.000000	0.145268	-0.000000	-1.033192	0.000000	0.000000	0.000000	0.000000	-0.900574	0.000000	0.282990	0.000000	0.000000	0.000000
0.886000	7.801287	260.169272	5.618065	-0.224720	0.000000	0.145400	-0.000000	-1.040352	0.000000	0.000000	0.000000	0.000000	-0.901393	0.000000	0.281854	0.000000	0.000000	0.000000
0.887000	8.304753	261.169688	5.639595	-0.224744	0.000000	0.145520	-0.000000	-1.047569	0.000000	0.000000	0.000000	0.000000	-0.902087	0.000000	0.280892	0.000000	0.000000	0.000000
0.888000	8.816568	262.208961	5.665847	-0.224762	0.000000	0.145626	-0.000000	-1.054842	0.000000	0.000000	0.000000	0.000000	-0.902715	0.000000	0.280021	0.000000	0.000000	0.000000
0.889000	9.336811	263.286904	5.696747	-0.224774	0.000000	0.145717	-0.000000	-1.062172	0.000000	0.000000	0.000000	0.000000	-0.903318	0.000000	0.279185	0.000000	0.000000	0.000000
0.890000	9.865556	264.403306	5.732218	-0.224778	0.000000	0.145791	-0.000000	-1.069556	0.000000	0.000000	0.000000	0.000000	-0.903930	0.000000	0.278335	0.000000	0.000000	0.000000
0.891000	10.402876	265.557931	5.772176	-0.224772	0.000000	0.145847	-0.000000	-1.076996	0.000000	0.000000	0.000000	0.000000	-0.904590	0.000000	0.277420	0.000000	0.000000	0.000000
0.892000	10.948837	266.750521	5.816533	-0.224757	0.000000	0.145886	-0.000000	-1.084490	0.000000	0.000000	0.000000	0.000000	-0.905347	0.000000	0.276370	0.000000	0.000000	0.000000
0.893000	11.503502	267.980791	5.865195	-0.224735	0.000000	0.145915	-0.000000	-1.092038	-0.000000	0.000000	0.000000	0.000000	-0.906280	0.000000	0.275077	0.000000	0.000000	0.000000
0.894000	12.066930	269.248434	5.918066	-0.224708	0.000000	0.145936	-0.000000	-1.099639	-0.000000	0.000000	0.000000	0.000000	-0.907537	0.000000	0.273334	0.000000	0.000000	0.000000
0.895000	12.639176	270.553116	5.975041	-0.224677	0.000000	0.145951	-0.000000	-1.107293	-0.000000	0.000000	0.000000	0.000000	-0.909453	0.000000	0.270677	0.000000	0.000000	0.000000
0.896000	13.220288	271.894477	6.036014	-0.224645	0.000000	0.145964	-0.000000	-1.114999	-0.000000	0.000000	0.000000	0.000000	-0.912996	0.000000	0.265764	0.000000	0.000000	0.000000
0.897000	13.810312	273.272131	6.100873	-0.224612	0.000000	0.145975	-0.000000	-1.122756	-0.000000	0.000000	0.000000	0.000000	-0.922708	0.000000	0.252296	0.000000	0.000000	0.000000
0.898000	14.409287	274.685666	6.169502	-0.224581	0.000000	0.145985	-0.000000	-1.130565	-0.000000	0.000000	0.000000	0.000000	-1.169913	0.000000	-0.090506	0.000000	0.000000	0.000000
0.899000	15.017250	276.134641	6.241780	-0.224550	0.000000	0.145994	-0.000000	-1.138424	-0.000000	0.000000	0.000000	0.000000	-0.880105	0.000000	0.311375	0.000000	0.000000	0.000000
0.900000	15.634228	277.618589	6.317582	-0.224519	0.000000	0.146003	-0.000000	-1.146333	-0.000000	0.000000	0.000000	0.000000	-0.892404	0.000000	0.294319	0.000000	0.000000	0.000000
0.901000	16.260248	279.137014	6.396781	-0.224489	0.000000	0.146010	-0.000000	-1.154292	-0.000000	0.000000	0.000000	0.000000	-0.896422	0.000000	0.288747	0.000000	0.000000	0.000000
0.902000	16.895328	280.689394	6.479244	-0.224459	0.000000	0.146017	-0.000000	-1.162298	-0.000000	0.000000	0.000000	0.000000	-0.898503	0.000000	0.285862	0.000000	0.000000	0.000000
0.903000	17.539482	282.275177	6.564834	-0.224429	0.000000	0.146023	-0.000000	-1.170353	-0.000000	0.000000	0.000000	0.000000	-0.899835	0.000000	0.284014	0.000000	0.000000	0.000000
0.904000	18.192717	283.893781	6.653413	-0.224399	0.000000	0.146027	-0.000000	-1.178454	-0.000000	0.000000	0.000000	0.000000	-0.900807	0.000000	0.282667	0.000000	0.000000	0.000000
0.905000	18.855036	285.544597	6.744836	-0.224367	0.000000	0.146030	-0.000000	-1.186601	-0.000000	0.000000	0.000000	0.000000	-0.901586	0.000000	0.281587	0.000000	0.000000	0.000000
0.906000	19.526434	287.226985	6.838959	-0.224334	0.000000	0.146029	-0.000000	-1.194793	-0.000000	0.000000	0.000000	0.000000	-0.902257	0.000000	0.280655	0.000000	0.000000	0.000000
0.907000	20.206901	288.940277	6.935632	-0.224298	0.000000	0.146023	-0.000000	-1.203030	-0.000000	0.000000	0.000000	0.000000	-0.902875	0.000000	0.279799	0.000000	0.000000	0.000000
0.908000	20.896421	290.683774	7.034703	-0.224260	0.000000	0.146014	-0.000000	-1.211309	-0.000000	0.000000	0.000000	0.000000	-0.903477	0.000000	0.278964	0.000000	0.000000	0.000000
0.909000	21.594970	292.456748	7.136017	-0.224220	0.000000	0.146001	-0.000000	-1.219629	-0.000000	0.000000	0.000000	0.000000	-0.904099	0.000000	0.278102	0.000000	0.000000	0.000000
0.910000	22.302521	294.258441	7.239417	-0.224180	0.000000	0.145987	-0.000000	-1.227991	-0.000000	0.000000	0.000000	0.000000	-0.904779	0.000000	0.277159	0.000000	0.000000	0.000000
0.911000	23.019035	296.088063	7.344744	-0.224139	0.000000	0.145971	-0.000000	-1.236391	-0.000000	0.000000	0.000000	0.000000	-0.905572	0.000000	0.276058	0.000000	0.000000	0.000000
0.912000	23.744470	297.944797	7.451836	-0.224099	0.000000	0.145957	-0.000000	-1.244829	-0.000000	0.000000	0.000000	0.000000	-0.906572	0.000000	0.274672	0.000000	0.000000	0.000000
0.913000	24.478777	299.827793	7.560530	-0.224059	0.000000	0.145943	-0.000000	-1.253303	-0.000000	0.000000	0.000000	0.000000	-0.907958	0.000000	0.272750	0.000000	0.000000	0.000000
0.914000	25.221897	301.736171	7.670660	-0.224019	0.000000	0.145928	-0.000000	-1.261811	-0.000000	0.000000	0.000000	0.000000	-0.910160	0.000000	0.269697	0.000000	0.000000	0.000000
0.915000	25.973768	303.669022	7.782060	-0.223978	0.000000	0.145913	-0.000000	-1.270352	-0.000000	0.000000	0.000000	0.000000	-0.914545	0.000000	0.263616	0.000000	0.000000	0.000000
0.916000	26.734316	305.625407	7.894561	-0.223935	0.000000	0.145895	-0.000000	-1.278924	-0.000000	0.000000	0.000000	0.000000	-0.929169	0.000000	0.243336	0.000000	0.000000	0.000000
0.917000	27.503464	307.604355	8.007995	-0.223889	0.000000	0.145874	-0.000000	-1.287525	-0.000000	0.000000	0.000000	0.000000	-0.787193	0.000000	0.440217	0.000000	0.000000	0.000000
0.918000	28.281124	309.604865	8.122190	-0.223841	0.000000	0.145853	-0.000000	-1.296152	-0.000000	0.000000	0.000000	0.000000	-0.885341	0.000000	0.304114	0.000000	0.000000	0.000000
0.919000	29.067202	311.625908	8.236977	-0.223792	0.000000	0.145832	-0.000000	-1.304803	-0.000000	0.000000	0.000000	0.000000	-0.893804	0.000000	0.292377	0.000000	0.000000	0.000000
0.920000	29.861595	313.666425	8.352184	-0.223744	0.000000	0.145815	-0.000000	-1.313477	-0.000000	0.000000	0.000000	0.000000	-0.897085	0.000000	0.287828	0.000000	0.000000	0.000000
0.921000	30.664193	315.725325	8.467640	-0.223697	0.000000	0.145804	-0.000000	-1.322170	-0.000000	0.000000	0.000000	0.000000	-0.898905	0.000000	0.285304	0.000000	0.000000	0.000000
0.922000	31.474878	317.801491	8.583172	-0.223655	0.000000	0.145804	-0.000000	-1.330880	-0.000000	0.000000	0.000000	0.000000	-0.900118	0.000000	0.283622	0.000000	0.000000	0.000000
0.923000	32.293524	319.893774	8.698608	-0.223616	0.000000	0.145813	-0.000000	-1.339604	-0.000000	0.000000	0.000000	0.000000	-0.901027	0.000000	0.282361	0.000000	0.000000	0.000000
0.924000	33.119995	322.000998	8.813778	-0.223581	0.000000	0.145829	-0.000000	-1.348340	-0.000000	0.000000	0.000000	0.000000	-0.901771	0.000000	0.281330	0.000000	0.000000	0.000000
0.925000	33.954148	324.121960	8.928511	-0.223548	0.000000	0.145850	-0.000000	-1.357083	-0.000000	0.000000	0.000000	0.000000	-0.902424	0.000000	0.280424	0.000000	0.000000	0.000000
